<?xml version="1.0" encoding="utf-8"?>
<!-- Generator: Adobe Illustrator 21.0.0, SVG Export Plug-In . SVG Version: 6.00 Build 0)  -->
<svg version="1.1" id="图层_1" xmlns="http://www.w3.org/2000/svg" xmlns:xlink="http://www.w3.org/1999/xlink" x="0px" y="0px"
	 viewBox="0 0 44 44" enable-background="new 0 0 44 44" xml:space="preserve">
<g>
	<linearGradient id="SVGID_1_" gradientUnits="userSpaceOnUse" x1="13.6022" y1="16.2576" x2="19.78" y2="16.2576">
		<stop  offset="0" style="stop-color:#FFEE1D"/>
		<stop  offset="0.0112" style="stop-color:#FEEB1B"/>
		<stop  offset="0.0974" style="stop-color:#FBD80C"/>
		<stop  offset="0.1863" style="stop-color:#F9CD03"/>
		<stop  offset="0.2809" style="stop-color:#F8C900"/>
		<stop  offset="0.6685" style="stop-color:#ED902E"/>
		<stop  offset="0.8876" style="stop-color:#E6652D"/>
		<stop  offset="1" style="stop-color:#E1352B"/>
	</linearGradient>
	<rect x="13.602" y="13.027" fill="url(#SVGID_1_)" width="6.178" height="6.46"/>
	<linearGradient id="SVGID_2_" gradientUnits="userSpaceOnUse" x1="5.7201" y1="22.9202" x2="11.8978" y2="22.9202">
		<stop  offset="0" style="stop-color:#33D3FF"/>
		<stop  offset="1" style="stop-color:#3368FF"/>
	</linearGradient>
	<rect x="5.72" y="19.69" fill="url(#SVGID_2_)" width="6.178" height="6.46"/>
	<linearGradient id="SVGID_3_" gradientUnits="userSpaceOnUse" x1="14.5731" y1="22.252" x2="18.5682" y2="22.252">
		<stop  offset="0" style="stop-color:#33D3FF"/>
		<stop  offset="1" style="stop-color:#3368FF"/>
	</linearGradient>
	<rect x="14.573" y="20.163" fill="url(#SVGID_3_)" width="3.995" height="4.178"/>
	<linearGradient id="SVGID_4_" gradientUnits="userSpaceOnUse" x1="0.6278" y1="27.5043" x2="3.9098" y2="27.5043">
		<stop  offset="0" style="stop-color:#33D3FF"/>
		<stop  offset="1" style="stop-color:#3368FF"/>
	</linearGradient>
	<rect x="0.628" y="25.788" fill="url(#SVGID_4_)" width="3.282" height="3.432"/>
	<linearGradient id="SVGID_5_" gradientUnits="userSpaceOnUse" x1="0.1875" y1="20.7155" x2="3.4694" y2="20.7155">
		<stop  offset="0" style="stop-color:#FFEE1D"/>
		<stop  offset="0.0112" style="stop-color:#FEEB1B"/>
		<stop  offset="0.0974" style="stop-color:#FBD80C"/>
		<stop  offset="0.1863" style="stop-color:#F9CD03"/>
		<stop  offset="0.2809" style="stop-color:#F8C900"/>
		<stop  offset="0.6685" style="stop-color:#ED902E"/>
		<stop  offset="0.8876" style="stop-color:#E6652D"/>
		<stop  offset="1" style="stop-color:#E1352B"/>
	</linearGradient>
	<rect x="0.187" y="18.999" fill="url(#SVGID_5_)" width="3.282" height="3.432"/>
	<linearGradient id="SVGID_6_" gradientUnits="userSpaceOnUse" x1="13.5743" y1="28.5653" x2="19.7521" y2="28.5653">
		<stop  offset="0" style="stop-color:#33D3FF"/>
		<stop  offset="1" style="stop-color:#3368FF"/>
	</linearGradient>
	<rect x="13.574" y="25.335" fill="url(#SVGID_6_)" width="6.178" height="6.46"/>
	<linearGradient id="SVGID_7_" gradientUnits="userSpaceOnUse" x1="6.4384" y1="16.2576" x2="10.6442" y2="16.2576">
		<stop  offset="0" style="stop-color:#33D3FF"/>
		<stop  offset="1" style="stop-color:#3368FF"/>
	</linearGradient>
	<rect x="6.438" y="14.059" fill="url(#SVGID_7_)" width="4.206" height="4.398"/>
	<linearGradient id="SVGID_8_" gradientUnits="userSpaceOnUse" x1="6.4384" y1="29.5964" x2="10.6442" y2="29.5964">
		<stop  offset="0" style="stop-color:#FFEE1D"/>
		<stop  offset="0.0112" style="stop-color:#FEEB1B"/>
		<stop  offset="0.0974" style="stop-color:#FBD80C"/>
		<stop  offset="0.1863" style="stop-color:#F9CD03"/>
		<stop  offset="0.2809" style="stop-color:#F8C900"/>
		<stop  offset="0.6685" style="stop-color:#ED902E"/>
		<stop  offset="0.8876" style="stop-color:#E6652D"/>
		<stop  offset="1" style="stop-color:#E1352B"/>
	</linearGradient>
	<rect x="6.438" y="27.397" fill="url(#SVGID_8_)" width="4.206" height="4.398"/>
	<g>
		<linearGradient id="SVGID_9_" gradientUnits="userSpaceOnUse" x1="20.6035" y1="13.8232" x2="33.1749" y2="13.8232">
			<stop  offset="0" style="stop-color:#33D3FF"/>
			<stop  offset="1" style="stop-color:#3368FF"/>
		</linearGradient>
		<path fill="url(#SVGID_9_)" d="M33.175,17.204c-0.048-1.138-0.593-5.316-5.953-6.456c-6.222-1.324-6.619,2.088-6.619,2.088v4.368
			H33.175z"/>
		<linearGradient id="SVGID_10_" gradientUnits="userSpaceOnUse" x1="20.5996" y1="24.7409" x2="32.9372" y2="24.7409">
			<stop  offset="0" style="stop-color:#33D3FF"/>
			<stop  offset="1" style="stop-color:#3368FF"/>
		</linearGradient>
		<path fill="url(#SVGID_10_)" d="M32.937,17.686H20.603v5.735L20.6,23.674v7.084c0.135,0.45,0.429,0.813,0.827,1.037h11.511V17.686
			z"/>
		<linearGradient id="SVGID_11_" gradientUnits="userSpaceOnUse" x1="33.4197" y1="24.7409" x2="43.8125" y2="24.7409">
			<stop  offset="0" style="stop-color:#33D3FF"/>
			<stop  offset="1" style="stop-color:#3368FF"/>
		</linearGradient>
		<path fill="url(#SVGID_11_)" d="M33.42,17.689v14.107h9.555C47.019,17.896,35.198,17.649,33.42,17.689z"/>
	</g>
	<path fill="none" d="M42.975,31.795h-20.8c-0.937,0-1.692-0.767-1.678-1.704l0.106-6.768V12.836c0,0,0.397-3.412,6.619-2.088
		s5.957,6.751,5.957,6.751S47.343,16.572,42.975,31.795z"/>
</g>
</svg>
